<?xml version="1.0" standalone="no"?>
<!DOCTYPE svg PUBLIC "-//W3C//DTD SVG 1.1//EN" "http://www.w3.org/Graphics/SVG/1.1/DTD/svg11.dtd" >
<svg xmlns="http://www.w3.org/2000/svg">
<metadata></metadata>
<defs>
<font id="bradley_gratisregular" horiz-adv-x="849" >
<font-face units-per-em="2048" ascent="1638" descent="-410" />
<missing-glyph horiz-adv-x="471" />
<glyph horiz-adv-x="2048" />
<glyph horiz-adv-x="2048" />
<glyph unicode="&#xd;" horiz-adv-x="471" />
<glyph unicode=" "  horiz-adv-x="471" />
<glyph unicode="&#x09;" horiz-adv-x="471" />
<glyph unicode="&#xa0;" horiz-adv-x="471" />
<glyph unicode="!" horiz-adv-x="583" d="M123 115l168 180l160 -162q-4 -8 -23.5 -34.5t-44.5 -56.5t-49.5 -57.5t-38.5 -35.5q-10 4 -32.5 21.5t-48.5 42t-50.5 51t-40.5 51.5zM150 608l12 770h254l14 -753l-137 -281z" />
<glyph unicode="&#x22;" horiz-adv-x="598" d="M55 1270l11 313h184l10 -307l-100 -113zM336 1268l10 313h184l11 -307l-101 -113z" />
<glyph unicode="$" horiz-adv-x="1024" d="M76 111q6 20 22.5 61t38 89t47 99.5t49.5 94.5q25 -111 63 -190t79 -126v316q-55 31 -106.5 66.5t-92.5 77.5t-65.5 92t-24.5 110q0 53 26.5 107.5t68.5 103.5t93.5 90t100.5 65v232h84v-199q20 4 30 4q8 0 15 -2v197h80v-215q68 -25 148.5 -76t141.5 -123l-198 -182 q0 94 -29 147.5t-63 79.5v-305q59 -35 118.5 -73t107.5 -81t78 -91t30 -101q0 -66 -33 -128.5t-83 -116.5t-108.5 -98t-109.5 -71v-229h-80v198q-16 -4 -23 -4q-6 0 -22 4v-198h-84v223q-37 12 -80 29.5t-85 38t-77 41t-57 43.5zM319 924q0 -18 14.5 -36t41.5 -38v164 q-23 -20 -39.5 -43.5t-16.5 -46.5zM459 76q6 -2 16 -2h10q8 0 19 4v305l-45 25v-332zM459 797q10 -6 21.5 -12.5t23.5 -14.5v297q-10 2 -23 2q-6 0 -22 -4v-268zM584 119q31 23 54.5 48t23.5 52q0 31 -22 57.5t-56 53.5v-211z" />
<glyph unicode="&#x26;" horiz-adv-x="1157" d="M53 354q0 57 19.5 108.5t49.5 96.5t64.5 83t67.5 69q-53 78 -87 146.5t-34 127.5q0 31 23.5 84t66.5 90l299 254q14 -2 45 -24.5t66 -55.5t67.5 -70.5t49.5 -70.5l-172 -166q-8 14 -28 40t-42.5 48.5t-43 39.5t-28.5 17q-18 0 -30.5 -24.5t-12.5 -42.5q0 -45 37 -102.5 t94.5 -123t125 -139t128.5 -149.5q39 88 39 178q0 41 -12 80t-41 67q18 20 46 27.5t50 7.5q31 0 59.5 -15t50 -39t35 -51.5t13.5 -51.5q0 -49 -45 -132t-113 -182q41 -66 67.5 -128t26.5 -124q0 -74 -35.5 -150.5t-90 -142t-116 -114.5t-112.5 -68q53 66 81 134.5t28 142.5 q0 35 -17.5 78t-46.5 90q-72 -90 -131 -155.5t-86 -90.5q-59 31 -125.5 71.5t-122 92t-91.5 112t-36 127.5zM291 524q0 -23 21.5 -61.5t53 -77.5t69.5 -66.5t71 -27.5q20 -1 55 26q-53 72 -113.5 146t-117.5 147q-16 -23 -27.5 -44t-11.5 -42z" />
<glyph unicode="'" horiz-adv-x="360" d="M20 1415l166 166q2 2 26 -22.5t51.5 -56.5t51 -60.5t25.5 -34.5q-4 -16 -31.5 -68.5t-62.5 -109.5q-39 -68 -88 -146q-8 -10 -21.5 -22t-25.5 -12q-16 0 -26.5 6t-14.5 14t-5.5 15.5t-1.5 9.5q0 12 9 30l55 107q4 8 7 15t3 20q0 23 -14 30z" />
<glyph unicode="(" horiz-adv-x="737" d="M53 618q0 152 42 276t104.5 222t137.5 169t139.5 118t108.5 69.5t48 22.5q12 0 27.5 -15.5t15.5 -37.5q0 -25 -27.5 -57.5t-68.5 -81t-90.5 -112t-90.5 -147t-68.5 -189t-27.5 -237.5q0 -135 27.5 -246.5t69.5 -201.5t91.5 -159.5t91.5 -119t69.5 -80t27.5 -42.5 q0 -23 -9 -38.5t-32 -15.5t-75 24.5t-116.5 75t-135 125t-128 175t-94.5 226t-37 277.5z" />
<glyph unicode=")" horiz-adv-x="792" d="M57 -231q0 12 28 42.5t70 80t91 119t91 159.5t69.5 201.5t27.5 246.5q0 131 -27.5 237t-68.5 189.5t-90 147t-90 112t-69 81t-28 57.5q0 23 15.5 38t27.5 15q4 0 48.5 -22.5t109 -69.5t139 -118t137 -169t104.5 -222t42 -276t-37 -277.5t-94 -226t-128 -175t-135.5 -125 t-116.5 -75t-75 -24.5t-32 15.5t-9 38.5z" />
<glyph unicode="," horiz-adv-x="360" d="M20 115l166 166q2 2 26 -23t51.5 -56.5t51 -60t25.5 -35.5q-4 -16 -31.5 -68t-62.5 -110q-39 -68 -88 -145q-8 -10 -21.5 -22.5t-25.5 -12.5q-16 0 -26.5 6t-14.5 14.5t-5.5 15.5t-1.5 9q0 12 9 31l55 106q4 8 7 15.5t3 19.5q0 23 -14 31z" />
<glyph unicode="-" d="M86 539q12 12 27.5 31.5t31 40t28.5 39t20 30.5l563 -21l-90 -143q-55 0 -144.5 1t-178.5 4t-160.5 7.5t-96.5 10.5z" />
<glyph unicode="." horiz-adv-x="434" d="M61 92l175 193q49 -43 91 -85t72 -87l-163 -193z" />
<glyph unicode="0" horiz-adv-x="702" d="M39 537q0 88 12 168.5t46 161.5t94.5 166t156.5 181q98 -63 159.5 -151t96.5 -175t47.5 -160t12.5 -105q0 -35 -8.5 -104.5t-40 -163t-94 -201t-173.5 -215.5q-160 160 -234.5 316.5t-74.5 281.5zM188 791q0 -154 68 -299.5t190 -247.5q23 23 41.5 67.5t18.5 120.5 q0 80 -27.5 167t-67.5 162t-84 129t-75 71q-23 -20 -43.5 -69.5t-20.5 -100.5z" />
<glyph unicode="1" horiz-adv-x="417" d="M41 1180q23 0 67 3t91 8t88 12t55 16v-1219h-258v989q0 53 -12.5 104.5t-30.5 86.5z" />
<glyph unicode="2" horiz-adv-x="704" d="M39 0q45 88 106.5 185.5t116.5 195.5t93 194.5t38 184.5q0 74 -32.5 116t-82 62t-105.5 25.5t-103 5.5l180 260q90 0 162.5 -32t123 -83t77 -113.5t26.5 -126.5q0 -72 -39 -155.5t-92 -167.5t-110.5 -161t-94.5 -132h356l-110 -258h-510z" />
<glyph unicode="3" horiz-adv-x="643" d="M27 184l153 181l180 -168q20 20 30.5 41.5t10.5 56.5q0 59 -33.5 109.5t-77.5 89t-87 63.5t-62 35q16 12 49 39.5t65 62.5t56.5 74t24.5 72t-21.5 62.5t-55.5 50t-74 32.5t-74 12l135 234q86 -14 143 -41t90 -59.5t46.5 -69.5t13.5 -72q0 -68 -33 -129t-92 -121 q23 -23 56.5 -53.5t64 -67t53 -78.5t22.5 -87t-14 -85t-35.5 -76t-47.5 -66.5t-48 -55.5l-201 -213z" />
<glyph unicode="4" horiz-adv-x="749" d="M8 262q76 125 141.5 256t112.5 255t75 237.5t28 203.5h319v-75q-66 -72 -138.5 -173.5t-138 -201.5t-114.5 -183t-66 -120h146v184q27 41 64.5 91t74.5 96.5t66.5 80t39.5 43.5v-495h74v-199h-74v-262h-245v262h-365z" />
<glyph unicode="5" horiz-adv-x="776" d="M61 152l144 202l237 -155q23 23 51.5 63.5t28.5 97.5q0 43 -36.5 80t-97 69t-139.5 57.5t-163 43.5l152 604h471l-60 -237h-350l-29 -127q203 -59 324 -152.5t121 -224.5q0 -49 -22.5 -93t-45.5 -79q0 -2 -12 -18.5t-31.5 -42t-44 -58t-49.5 -65.5q-59 -80 -135 -178z " />
<glyph unicode="6" horiz-adv-x="712" d="M33 530q0 96 31.5 215t94 234t157 212t216.5 150q-49 -49 -96 -112.5t-87 -136t-69.5 -153.5t-39.5 -163q12 4 25.5 10.5t29.5 22.5l141 137q72 -72 119 -131t74.5 -111.5t39 -101.5t11.5 -100q0 -68 -13.5 -134.5t-50 -134t-103 -136t-175.5 -136.5q-66 41 -121 109.5 t-96 148.5t-64.5 162t-23.5 149zM233 662q2 -78 25 -149t55.5 -130t69.5 -106.5t70 -77.5q33 31 48 60.5t15 82.5q0 27 -17.5 84t-48 114.5t-72.5 100.5t-93 43q-25 0 -52 -22z" />
<glyph unicode="7" horiz-adv-x="690" d="M43 889l39 325q2 -2 42 -4t100.5 -3t131 -3t134 -3t110.5 -1h59q0 -154 -39.5 -298t-87 -281.5t-87 -266.5t-39.5 -250q0 -63 6 -124.5t6 -133.5h-242q0 135 25.5 252t63.5 217.5t83 186.5t83 161.5t63.5 141t25.5 125.5h-344q-47 0 -82 -14.5t-51 -26.5z" />
<glyph unicode="8" horiz-adv-x="796" d="M29 342q12 23 37.5 53.5t60.5 66.5t73 73.5t74 72.5l-159 195q-16 20 -31.5 50t-15.5 52q0 23 22.5 45.5t44.5 42.5l299 244l311 -328l-213 -209l158 -174q23 -23 49.5 -55.5t26.5 -81.5q0 -47 -28.5 -84t-71.5 -80l-297 -284q-31 31 -80 83t-100.5 110.5t-95.5 113.5 t-64 94zM274 436q0 -29 24 -70.5t57.5 -81.5t69.5 -69t58 -29q23 0 41.5 25t18.5 53q0 53 -33 84l-170 189q-23 -23 -44.5 -49.5t-21.5 -51.5zM281 983l188 -211q16 10 27.5 23.5t11.5 27.5q0 12 -24.5 45t-56.5 67t-61.5 60.5t-39.5 26.5t-18.5 -6t-14.5 -15q-8 -8 -12 -18 z" />
<glyph unicode="9" horiz-adv-x="690" d="M31 637q0 133 70.5 272t242.5 305q76 -53 134.5 -125.5t98 -152.5t59 -161t19.5 -148q0 -96 -26.5 -211t-81.5 -229.5t-141.5 -218t-204.5 -175.5q33 53 73.5 121t78.5 143.5t67 158.5t41 167l-193 -205q-78 66 -125 116t-71.5 99t-32.5 106.5t-8 137.5zM176 807 q0 -66 18.5 -125t48 -105.5t65.5 -74t71 -27.5q12 0 35.5 10.5t50.5 26.5q-6 74 -28.5 140.5t-54.5 121.5t-67.5 100.5t-66.5 75.5q-33 -33 -52.5 -61.5t-19.5 -81.5z" />
<glyph unicode=":" horiz-adv-x="563" d="M104 106l179 175q43 -43 87 -82t83 -88l-170 -164q-41 41 -86 83t-93 76zM104 528l172 179q47 -31 90.5 -78t82.5 -101l-173 -176q-41 61 -87 98t-85 78z" />
<glyph unicode=";" horiz-adv-x="481" d="M74 119l174 172l149 -172q-4 -31 -32.5 -86.5t-63.5 -108.5q-39 -63 -88 -131q-10 -12 -21.5 -21.5t-27.5 -9.5q-20 0 -32.5 12.5t-12.5 28.5q0 6 5 16.5t9 22.5l47 90q4 10 9.5 21.5t5.5 21.5t-6.5 18.5t-16.5 18.5zM74 532l166 199q49 -41 88 -85t71 -89l-157 -195 q-37 47 -79 89.5t-89 80.5z" />
<glyph unicode="?" horiz-adv-x="870" d="M98 1067q0 39 16.5 93t53.5 103.5t95.5 83t142.5 33.5q68 0 136 -26.5t123.5 -69.5t89 -98.5t33.5 -112.5q0 -80 -25.5 -146.5t-64.5 -124t-84 -106.5t-83.5 -92t-64.5 -81t-26 -74q0 -16 1 -33t3 -31l5 -33h-56q-18 25 -35.5 53.5t-31 60.5t-22.5 64.5t-9 61.5 q0 90 39 173t85 164t85 160.5t39 163.5q-6 4 -11.5 9.5t-11.5 5.5q-14 0 -41.5 -17.5t-57.5 -54.5t-56.5 -95.5t-38.5 -142.5q-33 2 -67 14.5t-64.5 29t-56 34t-40.5 31.5zM266 104l170 177q35 -37 66 -68q27 -29 52.5 -54.5t39.5 -41.5q-4 -16 -30.5 -47t-55.5 -62 q-35 -37 -78 -76z" />
<glyph unicode="A" horiz-adv-x="1351" d="M37 86q0 29 18.5 42t38.5 13q18 0 28.5 -5t20 -12t21.5 -12.5t35 -5.5q37 0 59.5 38t36.5 102.5t21.5 149.5t11.5 179.5t10 191.5t16 187q12 106 38 194.5t54.5 156t57 114.5t49.5 76h-45q-39 0 -72 -11t-58.5 -24.5t-45 -25t-33.5 -11.5q-35 0 -51.5 25t-16.5 55 q0 29 32 54.5t89 25.5h948q-23 -16 -42 -40.5t-32.5 -52.5t-21.5 -53.5t-8 -43.5v-1393h-313v772h-275q-2 -74 -20.5 -161t-50 -174t-73.5 -168t-94.5 -142t-110.5 -98t-122 -37q-41 0 -70.5 24.5t-29.5 69.5zM623 985h260v510h-242q-2 -137 -7 -271t-11 -239z" />
<glyph unicode="B" horiz-adv-x="1052" d="M53 10q25 37 44.5 60.5t31.5 43t18.5 42t6.5 59.5v1219q-33 23 -63 57.5t-30 60.5q0 29 9.5 35t17.5 10q59 -23 103.5 -30.5t93.5 -7.5q43 0 76.5 6t67.5 14t71 14t86 6t116.5 -17t129 -54t104.5 -91.5t43 -127.5l-223 -174l239 -187v-682q-29 -66 -72.5 -117t-99 -85.5 t-118 -54t-127.5 -19.5q-27 0 -68 9t-83 19.5t-80 19.5t-58 9t-39 -7t-38 -16.5t-43 -16.5t-54 -7q-10 0 -20.5 1t-20.5 3t-21 6zM463 274q0 -35 2 -55t6 -32.5t10 -20.5t15 -16q18 -16 41.5 -24.5t48.5 -8.5t56.5 35.5t31.5 109.5v567l-107 70l-104 -121v-504zM463 987 q35 31 68.5 61.5t59 67.5t41 81t15.5 97t-15.5 90t-36 59.5t-42 32t-31.5 9.5q-23 0 -41 -20.5t-18 -43.5v-434z" />
<glyph unicode="C" horiz-adv-x="1239" d="M47 764q0 193 52.5 348.5t140.5 265t205.5 168t246.5 58.5q49 0 87 -10.5t71 -22.5t64.5 -22.5t70.5 -10.5q43 0 67.5 16.5t41 35t30 34.5t33.5 16q10 0 16.5 -2t12.5 -4q6 -4 12 -6l-743 -1290q35 -98 94 -159.5t151 -61.5q57 0 107.5 31.5t87.5 86t57.5 128t20.5 157.5 l162 -59q0 -102 -36 -190.5t-98.5 -153t-150.5 -102.5t-193 -38q-84 0 -171 32t-164 97l-93 -157l-96 61l103 180q-84 100 -136.5 242.5t-52.5 331.5zM389 764q0 -66 5 -133.5t18 -132.5l370 649q8 23 16.5 41t15.5 38.5t11 45t4 57.5q0 70 -36.5 110t-108.5 40 q-4 0 -28.5 -4.5t-57.5 -24.5t-69.5 -63.5t-67.5 -123t-51.5 -201.5t-20.5 -298z" />
<glyph unicode="D" horiz-adv-x="1069" d="M51 18q16 10 32.5 36t31.5 55q16 31 32 67v1264q-53 23 -73.5 55.5t-20.5 60.5q0 25 17 31q16 -10 44.5 -14t65.5 -4q18 0 52 6t75 12t85 12.5t83 6.5q94 0 192.5 -48.5t176.5 -147.5t128 -251.5t50 -363.5q0 -178 -30.5 -307.5t-78 -219.5t-104.5 -144t-111.5 -84 t-98.5 -40t-64 -10q-31 0 -66 8t-68.5 18.5t-63.5 18.5t-50 8q-23 0 -41.5 -7t-38 -14.5t-42 -14.5t-50.5 -7q-10 0 -21.5 2t-21.5 6t-21 10zM449 219q0 -43 15 -66.5t34 -33.5q23 -12 49 -15q47 0 83 63.5t36 162.5v899q0 96 -18.5 149.5t-43 78t-49.5 29.5t-39 5 q-25 0 -46 -33t-21 -86v-1153z" />
<glyph unicode="E" horiz-adv-x="1062" d="M98 868q0 43 6.5 114t27 149.5t59 159.5t105 145.5t165 105.5t237.5 41h265v-221q-23 20 -59 45t-76 44t-78.5 32.5t-65.5 13.5q-49 0 -100.5 -39t-83.5 -104q-33 -63 -42 -167t-9 -265h524l-105 -234q-20 31 -47.5 42t-50.5 11h-321q0 -117 4 -228.5t27.5 -199.5 t72.5 -142t141 -54q49 0 97.5 18.5t89.5 46t72.5 58t50.5 55.5v-295h-277q-199 0 -321.5 70.5t-191.5 190.5t-92.5 277.5t-23.5 329.5z" />
<glyph unicode="F" horiz-adv-x="954" d="M31 1151q0 70 21.5 144.5t66.5 136t113.5 100.5t162.5 39q66 0 122 -9.5t103.5 -21.5t86 -21.5t69.5 -9.5q47 0 83 13.5t71 48.5q0 -45 -17.5 -102.5t-51.5 -109.5t-87 -88t-123 -36q-35 0 -79 5t-91 13q-4 -14 -6 -26.5t-4 -22.5q-2 -12 -2 -22q0 -45 7 -87t22 -85h413 l-47 -140q-6 -27 -8 -39t-6 -38l-76 53h-211q45 -102 84 -208t39 -224q0 -106 -43 -197.5t-113.5 -159t-162 -105.5t-187.5 -38q70 70 112 123t65.5 98t30.5 85t7 85q0 55 -26.5 133t-59.5 166t-59.5 180.5t-26.5 176.5q0 45 15.5 88t39 82.5t52 75.5t57.5 65 q-41 8 -71.5 13t-45.5 5q-76 0 -128 -40t-111 -99z" />
<glyph unicode="G" horiz-adv-x="1085" d="M45 764q0 193 47 345.5t126 258t181.5 160.5t210.5 55q51 0 86 -5t65 -11t58.5 -11.5t65.5 -5.5q23 0 46 5.5t46 11.5l49 16q-80 -164 -146.5 -294t-123.5 -238l248 -162v-875q-20 23 -46 37.5t-61 14.5q-16 0 -48 -13.5t-74 -29t-92 -27.5t-103 -12q-104 0 -200.5 61 t-171.5 166.5t-119 248t-44 304.5zM377 651q45 70 92 148t88 151.5t74 138t49 107.5q8 23 16.5 41t14.5 38.5t10 44t4 58.5q0 33 -13.5 52.5t-34 31t-46 14.5t-47.5 3q-41 0 -78 -32t-65.5 -112t-46 -215t-17.5 -342v-127zM393 412q8 -63 24.5 -118.5t42 -96.5t63.5 -64.5 t89 -23.5q14 0 28.5 4t27.5 8q14 6 26 14v588l-90 49q-59 -106 -110.5 -191t-100.5 -169z" />
<glyph unicode="H" horiz-adv-x="1003" d="M43 1583h770q45 0 70.5 -30.5t25.5 -65.5t-19.5 -57.5t-64.5 -22.5q-23 0 -43 10t-45.5 23.5t-58.5 24t-82 10.5h-162v-435l230 228q63 -49 117.5 -120t93 -156t60 -179t21.5 -192q0 -100 -12 -199.5t-45 -193t-92 -179.5t-152 -160q45 117 60.5 239t15.5 226 q0 35 -9 106.5t-37 153.5t-79 160t-137 127l-35 -22v-879h-303v1380q0 20 -6 49t-17.5 56.5t-28 53.5t-36.5 44z" />
<glyph unicode="I" horiz-adv-x="634" d="M25 1499q0 23 12 38t31.5 25.5t42 15.5t41.5 5h442v-117h-96v-1466h-293v1442q0 16 -9.5 22t-19.5 6q-12 0 -35.5 -21.5t-56.5 -21.5q-16 0 -37.5 13.5t-21.5 58.5z" />
<glyph unicode="J" horiz-adv-x="882" d="M43 -4q0 35 27.5 61.5t66.5 26.5q47 0 74 -29.5t47.5 -64.5t40.5 -64.5t55 -29.5q66 0 108 54t42 171v1089q35 6 82 31t93 55.5t83 63.5t49 59l-10 -65q-4 -35 -4 -64v-1210q-35 -61 -87.5 -112.5t-111.5 -88.5t-122.5 -56.5t-121.5 -19.5q-57 0 -112.5 9.5t-99.5 31 t-71.5 59.5t-27.5 93zM84 1227q0 57 30.5 117.5t84 111.5t125 84t155.5 33q8 0 37 -3t64.5 -7t70.5 -7.5t58 -3.5q35 0 70.5 10.5t45.5 20.5q0 -35 -27.5 -90t-74.5 -106.5t-107.5 -88t-123.5 -36.5q-47 0 -81 5t-59 11l-45 10q-20 6 -43 6q-45 0 -70.5 -19.5t-25.5 -53.5 q0 -39 18.5 -51.5t43 -20.5t47 -23.5t30.5 -60.5q-31 -35 -76 -35q-12 0 -36.5 10.5t-49 34t-43 60t-18.5 92.5z" />
<glyph unicode="K" horiz-adv-x="1091" d="M39 1583h375v-665q35 20 65.5 40.5t52.5 38.5q47 37 74 76t41.5 76t17.5 70.5t3 62.5q0 49 -21.5 90t-58.5 94l250 150q55 -57 94 -108.5t39 -110.5q0 -66 -48.5 -134.5t-105.5 -125.5q-68 -68 -151 -131q96 -78 153.5 -146.5t88 -132t39.5 -121t9 -112.5q0 -111 -8 -200 t-8 -200q0 -55 22.5 -96t48 -71.5t48 -54.5t22.5 -42q0 -10 -9 -28.5t-44 -18.5q-41 0 -69.5 32.5t-71.5 125.5q-8 18 -39 86.5t-73 161t-90 196.5t-91 194.5t-76 154t-45 77.5l-59 -35v-776h-297v1407q0 53 -22.5 97t-55.5 79z" />
<glyph unicode="L" horiz-adv-x="1024" d="M45 0q27 39 46.5 74t31.5 69.5t18 73.5t6 86v969q0 66 -24.5 107.5t-34.5 58.5q8 2 42 15t83 31.5t108.5 39t117 38t108.5 29t84 11.5q51 0 96 -29t82 -72t63.5 -95t42.5 -97l-274 -129q-51 123 -88 204.5t-57 81.5q-23 0 -30 -19.5t-7 -33.5v-1110q0 -45 -24.5 -94 t-65.5 -86q76 0 135 38t123.5 84t144.5 84t199 38v-367h-926z" />
<glyph unicode="M" horiz-adv-x="1599" d="M59 1583h351v-221h26l281 276q104 -80 174 -157.5t74 -151.5l245 299q84 -74 146.5 -163t103.5 -186t61.5 -197.5t20.5 -194.5t-19.5 -200.5t-47 -208t-58.5 -189.5t-53 -146q25 0 49.5 3.5t47 9.5t40 13t25.5 15v-184h-305q39 113 61.5 231.5t22.5 247.5 q0 147 -24 284.5t-61.5 244t-88 171t-101.5 64.5q-39 0 -65 -33v-1210h-306v1145q0 41 -13 69.5t-32.5 47t-44 26.5t-47.5 8q-35 0 -63.5 -18t-48.5 -41v-1237h-299v1427q0 47 -14.5 87t-37.5 69z" />
<glyph unicode="N" horiz-adv-x="1073" d="M49 1583h397v-209l228 264q104 -94 171.5 -187t106.5 -186.5t53.5 -188.5t14.5 -195q0 -98 -15.5 -187.5t-44 -175.5t-68.5 -174t-87 -184h74q27 0 55.5 18.5t56.5 18.5v-197h-397q55 113 89 203t52.5 172t24.5 159.5t6 165.5t-29.5 183.5t-72.5 175.5t-91.5 131 t-87.5 51q-25 0 -39 -12v-1229h-323v1415q0 57 -24.5 97t-49.5 71z" />
<glyph unicode="O" horiz-adv-x="1050" d="M45 788q0 137 38 281.5t103.5 261.5t153.5 191.5t186 74.5q86 0 171 -63.5t154 -173t112 -257t43 -315.5q0 -150 -38 -295t-102.5 -259.5t-152.5 -185.5t-187 -71q-92 0 -179 63.5t-153.5 174.5t-107.5 258.5t-41 314.5zM422 274q0 -70 9 -108.5t24.5 -58t36 -23.5 t40.5 -4q41 0 68 56.5t27 172.5v889q0 92 -9.5 150.5t-24.5 90t-34.5 44t-38.5 12.5q-39 0 -68.5 -48t-29.5 -153v-1020z" />
<glyph unicode="P" horiz-adv-x="1024" d="M53 1597q31 -23 78 -38t100 -15q27 0 68 8.5t83 18.5t82 18t64 8q111 0 199 -35.5t150.5 -96t95.5 -142.5t33 -174t-28 -174t-79 -142.5t-122.5 -95.5t-158.5 -35q-63 0 -107 20.5t-73 49.5v-772h-305v1436q-37 23 -58.5 56.5t-21.5 104.5zM438 989q25 14 58 15 q25 0 42 -10.5t27 -25t14.5 -26.5t4.5 -18q0 -23 -12.5 -39.5t-28.5 -16.5q-14 0 -31.5 6.5t-24.5 26.5q-4 -4 -7 -9t-3 -9q0 -14 17.5 -39t62.5 -25q23 0 46.5 12.5t42 46t30.5 96t12 165.5q0 68 -7 131t-26.5 113.5t-55.5 80t-91 29.5q-29 0 -43 -12.5t-27 -34.5v-457z " />
<glyph unicode="Q" horiz-adv-x="1021" d="M41 780q0 139 37 284.5t101.5 265.5t150.5 196t186 76q86 0 168 -66t146.5 -177.5t104.5 -261t40 -317.5q0 -135 -28.5 -256t-77 -221t-109 -175t-123.5 -114q25 -4 47.5 -7t42.5 -3q61 0 111.5 16.5t93.5 32.5l-180 -272q-74 12 -127.5 36.5t-95.5 49t-79.5 43 t-82.5 18.5q-25 0 -49.5 -6t-46 -14t-39 -14.5t-25.5 -6.5q-16 0 -29.5 10.5t-13.5 30.5q0 8 11 24.5t33.5 33t54.5 32t73 21.5q-61 47 -114.5 122t-93.5 171t-63.5 209.5t-23.5 238.5zM397 268q0 -35 8.5 -68.5t21.5 -60t31.5 -43t39.5 -16.5q20 0 40.5 17.5t36 47 t25.5 70.5t10 90v887q0 92 -7 152.5t-20.5 96.5t-30.5 49t-36 13q-39 0 -79 -55t-40 -158v-1022z" />
<glyph unicode="R" horiz-adv-x="1101" d="M59 1602q18 -18 65.5 -32t100.5 -14q27 0 76 7.5t101.5 15.5t100.5 15.5t75 7.5q68 0 135 -20.5t124.5 -70t97.5 -132.5t52 -210l-364 -258q41 -16 92 -55t97 -108.5t77 -177t31 -263.5q0 -135 12 -219t30.5 -135t40 -77t39.5 -44q-90 0 -159.5 52.5t-122.5 136t-93 190 t-73 215.5t-60.5 209t-56.5 174q-14 -10 -27.5 -19.5t-23.5 -19.5v-766h-301v1460q-66 37 -66 138zM426 918q41 25 81 57.5t71.5 73.5t51 95t19.5 122q0 57 -21.5 97t-50 64.5t-56 35t-42.5 10.5q-16 0 -29.5 -6.5t-23.5 -14.5v-534z" />
<glyph unicode="S" horiz-adv-x="905" d="M31 190q20 25 51 69t60.5 87t53 77t29.5 40q29 -18 79 -50t100.5 -67t91.5 -63.5t53 -40.5q29 16 48 42.5t19 86.5q0 51 -42 108.5t-103 121t-135 133t-135.5 143t-103.5 149.5t-42 156q0 57 30 107t75 94t99 80t104.5 68t89.5 57.5t55 45.5q12 -10 54 -50t91 -85 t93.5 -80t58.5 -35q-20 -16 -50 -47.5t-59.5 -66.5t-53.5 -67t-34 -48q-47 20 -94 61t-86 80t-65.5 69t-34.5 30q-16 0 -27.5 -17.5t-11.5 -40.5q0 -49 44 -104t108.5 -117.5t141 -131.5t141 -142.5t109 -152.5t44.5 -161q0 -74 -55.5 -155.5t-132.5 -162.5t-157 -154 t-131 -128q-47 47 -107.5 92.5t-116.5 80t-98 59t-48 30.5z" />
<glyph unicode="T" horiz-adv-x="1003" d="M43 1182q16 80 61.5 157.5t113 137t155.5 96.5t192 37q53 0 112.5 -16.5t114 -42t97.5 -56.5t65 -59l-168 -256q-102 100 -221 143q-27 -43 -55.5 -101.5t-52 -132t-39 -162.5t-15.5 -194q0 -98 15.5 -174t40 -131t56.5 -92t65 -62q78 -55 178 -61q41 0 95 17t87 46 q0 -80 -33 -138t-85 -95t-115.5 -55.5t-124.5 -18.5q-96 0 -188.5 47t-166 128t-119 190.5t-45.5 236.5q0 227 104.5 423t291.5 356q-16 2 -29.5 3t-28.5 1q-49 0 -104 -16.5t-104.5 -42t-89.5 -56.5t-60 -57z" />
<glyph unicode="U" horiz-adv-x="1093" d="M43 596q0 131 40 239.5t88 201.5t88 174t40 159q0 37 -11.5 68.5t-25.5 59.5t-25.5 49.5t-11.5 35.5q0 18 13.5 33.5t35.5 15.5q20 0 49 -17.5t54.5 -57t43 -102t17.5 -152.5t-16 -147.5t-35.5 -114t-36 -129t-16.5 -191.5q0 -68 19.5 -130.5t47 -113.5t59.5 -90t56 -59 l143 123v1132h314v-1261q0 -63 16.5 -94t48.5 -54l-192 -221l-187 199v120q-20 -16 -56 -46.5t-77 -70.5t-86 -87.5t-84 -98.5q-164 139 -238.5 290t-74.5 337z" />
<glyph unicode="V" horiz-adv-x="1042" d="M47 778q0 49 15.5 128t44 169t71.5 184.5t98 174.5q-76 0 -125 -13.5t-75 -29.5v192h420q-80 -147 -129.5 -311t-49.5 -320q0 -78 16.5 -168t57.5 -183t114 -186t183 -173v1341h297v-1218q-4 -12 -26.5 -38t-56.5 -58.5t-75 -69.5t-84 -74q-100 -86 -225 -188 q-227 172 -349 378.5t-122 462.5z" />
<glyph unicode="W" horiz-adv-x="1574" d="M55 692q0 96 20.5 191.5t54.5 188.5t79 182t92 176h-12q-6 0 -13.5 1t-17.5 1q-33 0 -79 -8.5t-89 -41.5v201h430q-53 -92 -91 -185t-61.5 -180.5t-34.5 -164t-11 -138.5q0 -61 12 -147t46 -177t92 -173t153 -133l61 45q-37 70 -57.5 134t-29.5 121.5t-11 105.5t-2 87 q0 63 16 143t47 166.5t75 174.5t99 172q-78 0 -128 -12.5t-85 -35.5v197h443q-37 -51 -73 -115.5t-62.5 -139.5t-43 -159t-16.5 -172q0 -150 26.5 -265.5t74 -203.5t111 -151.5t134.5 -108.5v1315h307v-1231q0 -14 -20.5 -39.5t-52 -58.5t-73.5 -71t-85 -74 q-102 -86 -231 -189q-100 78 -172 154t-123 147l-295 -289q-111 80 -188.5 171.5t-125 189.5t-69 199.5t-21.5 199.5z" />
<glyph unicode="X" horiz-adv-x="1032" d="M51 195q0 20 10 41l310 583l-269 764h320l178 -502q35 47 51.5 91.5t16.5 76.5q0 18 -12.5 48t-31 59.5t-39 55.5t-36.5 38l213 182q16 -20 44 -49t55.5 -56.5t47 -52t19.5 -36.5q0 -18 -28 -72.5t-68.5 -125.5t-91 -148.5t-93.5 -141.5l342 -950h-332l-237 676 q-16 -23 -33.5 -52.5t-32 -62.5t-22.5 -64.5t-8 -54.5q0 -29 10 -65.5t28.5 -74.5t42 -72.5t50.5 -55.5l-219 -217l-158 164q-12 12 -19.5 32.5t-7.5 41.5z" />
<glyph unicode="Y" horiz-adv-x="946" d="M51 1583h289q0 -154 30.5 -296t71.5 -251.5t81 -174t59 -64.5q10 0 14 2q37 82 58.5 154.5t21.5 136.5q0 74 -16.5 132t-39 101t-49 72.5t-45.5 48.5l209 162q70 -41 120 -108.5t50 -176.5q0 -45 -7 -94t-26.5 -110.5t-55.5 -139.5t-92 -181.5t-138 -237.5t-193 -308h225 q47 0 82 5t43 7l-122 -262h-566q98 125 190.5 247t170.5 240q-182 215 -273.5 497t-91.5 599z" />
<glyph unicode="Z" horiz-adv-x="1114" d="M43 0q27 158 77 297t111.5 266t128 243t126 224.5t104.5 212t65 207.5q-16 10 -37.5 18.5t-80.5 8.5q-31 0 -54.5 -15.5t-40 -37t-25.5 -45t-9 -38.5q0 -16 7 -37.5t16 -42t19.5 -38t18.5 -25.5l-250 -156q-49 47 -83 116t-34 138q0 35 18.5 86.5t59.5 99.5t107.5 81.5 t163.5 33.5q76 0 127 -10t90 -23.5t72.5 -23.5t76.5 -10q27 0 57.5 4t57 12t48 17.5t34.5 21.5q-25 -129 -78 -268t-117.5 -278.5t-135.5 -272.5t-129 -249t-98 -209t-44 -152q82 -35 139 -35q37 0 76 9t70.5 29.5t52 52.5t20.5 77t-9 74.5t-23.5 49t-33 35t-34.5 31.5 l235 174q82 -61 117 -130.5t35 -151.5q0 -39 -11.5 -75t-26.5 -65.5t-34.5 -54t-34.5 -39.5l35 -35q10 -10 22.5 -29.5t12.5 -33.5q0 -16 -13.5 -48t-52.5 -57q-14 18 -32 33q-16 12 -35 22.5t-39 10.5h-805z" />
<glyph unicode="a" horiz-adv-x="790" d="M37 356q0 63 13 130t54 134.5t116 134t198 126.5q-2 6 -8.5 20t-19.5 28.5t-35.5 26t-55.5 11.5q-43 0 -101.5 -2t-117.5 -9l328 277l274 -182v-777q0 -57 24.5 -88.5t38.5 -46.5l-176 -168q-12 8 -36.5 28.5t-47 47.5t-41 54.5t-18.5 50.5l-172 -185q-94 66 -155.5 165 t-61.5 224zM270 477q0 -72 16.5 -117t36 -70.5t38 -35.5t24.5 -10q12 0 28.5 13t16.5 52v416q0 12 -5 18.5t-9 10.5q-9 4 -15 4q-14 0 -36.5 -21.5t-43 -58.5t-36 -88t-15.5 -113z" />
<glyph unicode="b" horiz-adv-x="780" d="M53 1434l295 67v-457l129 199q14 -12 58.5 -59t92.5 -126t86 -186.5t38 -242.5q0 -133 -39 -244t-93.5 -196t-111.5 -143t-94 -87l-340 123q4 8 12 40t8 56v1125q0 10 -9 52t-32 79zM352 238l137 -56q18 14 30.5 45t20 66t10.5 71.5t3 67.5q0 121 -25.5 208t-57.5 143.5 t-59.5 83t-33.5 26.5q-25 0 -25 -14v-641z" />
<glyph unicode="c" horiz-adv-x="604" d="M37 590q0 117 27.5 221t72.5 188t102.5 141.5t118.5 80.5q6 -8 27 -45t48.5 -77t57 -73t54.5 -33q4 0 18.5 1t18.5 5q0 -25 -10.5 -63.5t-30 -75.5t-48 -63.5t-65.5 -26.5q-33 0 -64.5 23.5t-58.5 52.5q-31 35 -57 78q-10 -10 -19 -29q-8 -16 -13 -41t-5 -61q0 -27 5 -76 t20.5 -110.5t41 -128t67.5 -127t100.5 -108.5t138.5 -71l-228 -229q-176 139 -247.5 296.5t-71.5 350.5z" />
<glyph unicode="d" horiz-adv-x="804" d="M31 539q0 150 35.5 267.5t85 204.5t100.5 141t80 79l110 -111v148q-4 31 -12 61q-8 27 -22.5 57.5t-38.5 55.5l319 61v-1265q0 -20 8.5 -39t19.5 -32t22.5 -23.5t17.5 -16.5l-158 -180l-121 114q-4 4 -18.5 26t-14.5 67l-178 -201q-66 59 -119 143q-45 72 -80.5 181.5 t-35.5 261.5zM229 739q0 -117 23.5 -205t54.5 -147t60.5 -90t42.5 -31q12 0 20 7.5t12 16.5t5.5 17t1.5 10v603q0 10 -19.5 35.5t-42.5 54.5q-26 32 -61 69q-27 -35 -50 -84q-18 -43 -32.5 -106.5t-14.5 -149.5z" />
<glyph unicode="e" horiz-adv-x="630" d="M35 612q0 150 46 265.5t104.5 195.5t110.5 125t64 53l240 -420l-321 -362q55 -92 104 -146.5t90 -82t70.5 -34.5t46.5 -7q10 0 14 2l-237 -242q-16 10 -69.5 53t-112 123t-104.5 198.5t-46 278.5zM186 748q0 -35 6.5 -66t16.5 -53q10 -27 24 -51l82 81q6 6 20.5 26 t14.5 42q0 27 -12 50.5t-23 37.5l-75 123q-4 -6 -12.5 -24.5t-17.5 -46t-16.5 -58.5t-7.5 -61z" />
<glyph unicode="f" horiz-adv-x="565" d="M35 1004v118h84q0 12 -3 39t-10.5 57.5t-19.5 60.5t-31 48l342 178l140 -164l-103 -133l-119 138q-6 8 -14 8q-16 0 -16 -17q0 -4 4 -12l43 -63q12 -16 20 -39q8 -18 15.5 -42t7.5 -51v-8h117v-118h-117v-1004h-256v1004h-84z" />
<glyph unicode="g" horiz-adv-x="821" d="M39 -180l104 192q6 -6 31 -34.5t61.5 -60.5t84 -56.5t98.5 -24.5q33 0 61.5 12.5t50 33t33.5 43t12 44.5q0 35 -17 64.5t-36.5 56.5t-37 51.5t-17.5 51.5l-203 -220q-53 61 -91 129t-62.5 133.5t-36 127t-11.5 110.5q0 150 33 264.5t88.5 204.5t130 161t158.5 134 l297 -182q-16 -16 -32.5 -51t-16.5 -68v-598q0 -33 7 -55.5t16.5 -45t17.5 -51t8 -71.5t-21.5 -109.5t-70.5 -128t-130 -106.5t-198 -45q-59 0 -112.5 13t-95.5 29.5t-69.5 32t-33.5 19.5zM268 705q0 -70 17.5 -144t43 -135t56.5 -100t59 -39q16 0 21.5 15t5.5 32v584 l-135 79q-16 -23 -42 -92t-26 -200z" />
<glyph unicode="h" horiz-adv-x="817" d="M51 1413q8 2 50 11.5t91.5 22.5t93.5 26.5t54 23.5v-463l170 201q49 -31 98 -104.5t89 -166t64.5 -194.5t24.5 -190q0 -90 -17 -182.5t-56 -180.5t-100.5 -166t-149.5 -139q23 33 42 81t34.5 104.5t23.5 116.5t8 118q0 90 -16 190.5t-44 184.5t-62.5 139t-73.5 55 q-10 0 -22.5 -10t-12.5 -39v-852h-244v1284q0 37 -17.5 78t-27.5 51z" />
<glyph unicode="i" horiz-adv-x="395" d="M29 1073l170 158l139 -166v-1065h-254v948q0 37 -19.5 71t-35.5 54zM76 1356l112 110q20 -45 52 -75.5t63 -30.5q35 0 41 10q-6 -27 -20.5 -44t-31 -28.5t-33.5 -16.5t-32 -5q-111 0 -151 80z" />
<glyph unicode="j" horiz-adv-x="403" d="M23 -293q29 25 53 76t24 106v1055q0 27 -10 48.5t-22.5 39t-24.5 27.5t-14 12l168 180l145 -170v-1206q-4 -23 -27.5 -51.5t-60.5 -55t-84 -44t-98 -17.5h-49zM80 1370l119 103q16 -35 48 -64t54 -29h18.5t14.5 2q8 2 14 4q-4 -23 -18.5 -40t-34 -31.5t-38.5 -21.5 t-34 -7q-29 0 -74 17.5t-69 66.5z" />
<glyph unicode="k" horiz-adv-x="817" d="M53 1436q23 2 66 7t87 12t83 16.5t51 19.5v-789q57 31 93 66t56.5 68.5t26.5 62.5t6 47q0 35 -27.5 81t-66.5 73l231 127q47 -37 79 -90.5t32 -104.5q0 -27 -13.5 -55.5t-34 -54t-44 -48t-43.5 -36.5q-23 -14 -35 -27.5t-20 -26.5q-9 -14 -15 -26q23 -35 43.5 -92.5 t39 -124t35.5 -137t34.5 -131t35 -105.5t35.5 -62l-196 -159q-4 2 -21.5 22.5t-42 65.5t-52 115.5t-48.5 173.5q-16 84 -30.5 134t-26 77.5t-19.5 37t-12 11.5v-584h-240v1313q0 33 -17 73.5t-30 49.5z" />
<glyph unicode="l" horiz-adv-x="415" d="M31 1430q49 0 101 8t97 17t77 17.5t38 10.5v-1483h-256v1278q0 53 -17.5 91t-39.5 61z" />
<glyph unicode="m" horiz-adv-x="1169" d="M57 1014l148 207l147 -181q6 -8 12.5 -17t6.5 -15l186 217l168 -191q4 -6 8 -11t6 -9q2 -6 2 -10l179 213l184 -224v-993h-256v842q0 25 -16.5 47t-24.5 22q-10 0 -72 -73v-838h-262v842q0 29 -16.5 54.5t-32.5 25.5t-33.5 -15.5t-25.5 -38.5v-868h-261v934 q0 31 -19 52.5t-28 27.5z" />
<glyph unicode="n" horiz-adv-x="833" d="M49 1024l160 186l143 -176q8 -12 13 -24q2 -8 4 -15l198 219l168 -196v-793q0 -41 18.5 -65.5t28.5 -30.5l-174 -176l-98 131q-4 4 -16.5 22.5t-12.5 59.5v721q0 16 -9 29.5t-30 13.5q-16 0 -38.5 -19.5t-32.5 -29.5v-881h-265v938q0 31 -23.5 53.5t-33.5 32.5z" />
<glyph unicode="o" horiz-adv-x="688" d="M39 653q0 68 17.5 149t55.5 158.5t95 148.5t137 118q106 -80 166.5 -175.5t91.5 -190.5t39 -178t8 -138t-14 -123t-50 -144.5t-93.5 -159.5t-143.5 -165q-117 100 -179.5 197.5t-91 186.5t-33.5 169t-5 147zM186 817q0 -51 13.5 -118.5t42.5 -141.5q25 -63 52.5 -116.5 t55 -91.5t53 -59.5t48.5 -21.5q29 0 39 29t10 72q0 106 -58 262q-23 61 -50 114.5t-55 92.5t-54.5 60.5t-46.5 21.5q-29 -2 -39.5 -30t-10.5 -73z" />
<glyph unicode="p" horiz-adv-x="815" d="M49 238l64 65v623q0 47 -13.5 71.5t-46.5 53.5l180 176l127 -156v-70l195 226q113 -96 172 -239.5t59 -317.5q0 -86 -16 -163t-56 -159t-108.5 -174t-173.5 -209l-72 51v-280h-247v457zM360 342l150 -127q18 27 32.5 53.5t22.5 58t12.5 71.5t4.5 94q0 51 -12.5 120.5 t-35 134t-53 113.5t-67.5 62l-54 -58v-522z" />
<glyph unicode="q" horiz-adv-x="768" d="M25 535q0 70 20.5 147.5t72.5 163.5t140 180t221 197l221 -144v-1343h-249v424l-175 -209q-72 76 -119.5 135t-76.5 121.5t-42 138.5t-13 189zM254 694q0 -104 21.5 -183t50 -131t56.5 -78t38 -26q12 0 31 19v645l-107 57q-33 -35 -61.5 -107.5t-28.5 -195.5z" />
<glyph unicode="r" horiz-adv-x="669" d="M59 1034l168 168l125 -158v-49l162 199l135 -227l-151 -207l-95 112l-51 -51v-821h-246v922q0 41 -15 61.5t-32 50.5z" />
<glyph unicode="s" horiz-adv-x="671" d="M41 246l166 164l196 -213l27 28q4 4 6 9.5t2 19.5q0 8 -1 16.5t-9 18.5l-309 383q-29 35 -45.5 72.5t-16.5 68.5q0 33 7.5 62.5t23.5 46.5l289 307l213 -248l-160 -172l-137 160q-6 -8 -14 -15q-6 -6 -11.5 -10t-9.5 -8q-6 -6 -6 -12q0 -8 8 -17l305 -375 q18 -23 42 -62.5t24 -94.5t-18.5 -90t-47.5 -64l-264 -252z" />
<glyph unicode="t" horiz-adv-x="473" d="M27 1040l319 320v-252h98v-123h-98v-758q0 -39 27.5 -70.5t48.5 -54.5l-186 -170l-142 152v850q0 35 -24.5 60.5t-42.5 45.5z" />
<glyph unicode="u" horiz-adv-x="841" d="M47 1016l189 182q6 -12 23 -33.5t37.5 -43t40 -40t30.5 -24.5v-740q0 -31 11 -57.5t34 -26.5q12 0 29.5 12.5t33.5 33.5v841q31 0 75 11.5t85 27.5q49 16 100 39v-981q2 -53 53 -98l-170 -182l-143 151v49q-23 -16 -55.5 -40.5t-64 -51.5t-59.5 -52.5t-40 -39.5l-147 170 v786q0 35 -24 62.5t-38 44.5z" />
<glyph unicode="v" horiz-adv-x="718" d="M41 1133q23 2 57.5 10t69.5 17t64.5 19.5t41.5 18.5q0 -199 15.5 -347.5t40 -258t57.5 -185t68 -131.5q31 35 52 108t21 151q0 37 -8 93t-31.5 119.5t-65.5 129t-110 120.5q23 20 48.5 48t50 58t43 55.5t24.5 41.5q98 -72 148.5 -192.5t50.5 -266.5q0 -84 -22.5 -193.5 t-63.5 -224t-98.5 -220t-128.5 -179.5q-147 147 -235.5 457t-88.5 752z" />
<glyph unicode="w" horiz-adv-x="1107" d="M53 1116l253 82q0 -385 30.5 -608t71.5 -289l75 145q-18 82 -28.5 153t-10.5 118q0 66 -3 128t-9 114.5t-13 92.5t-16 60q16 2 51 10t72 19.5t69 22t42 20.5q14 -59 24.5 -124t16.5 -122t9 -100t3 -58q0 -10 4.5 -47t14.5 -88t22 -110.5t26.5 -113.5t29 -97t28.5 -62 q25 31 43.5 73t30.5 90t17 97t5 92t-6 93.5t-26.5 101.5t-58.5 101.5t-99 90.5q43 51 80 93q31 35 56.5 66.5t25.5 37.5q47 -35 80.5 -86t55 -105.5t32 -106.5t10.5 -85q0 -119 -24.5 -227.5t-62.5 -204.5t-83 -176t-86 -140.5t-74 -99.5t-43 -51q-47 66 -90 168t-76 217 q-20 -37 -51 -93t-62.5 -111.5t-60.5 -101.5t-43 -65q-33 49 -64.5 99.5t-59 114t-51.5 146.5t-41 197.5t-26.5 268t-9.5 360.5z" />
<glyph unicode="x" horiz-adv-x="839" d="M51 117q0 55 20.5 111.5t54.5 109.5t77 106.5t90 102.5q-31 82 -60.5 160.5t-58.5 143t-55 112.5t-51 71q25 16 56.5 40t62 47.5t53 44t28.5 32.5q27 -25 52.5 -69t52 -102t54.5 -128t56 -145q31 39 49.5 73.5t18.5 63.5q0 47 -29.5 92t-64.5 82l178 133q49 -49 76.5 -97 t27.5 -71q0 -43 -18.5 -87t-50 -90t-71.5 -94t-83 -95q31 -82 63.5 -162t67.5 -153t72 -131t78 -97l-209 -170q-72 80 -135.5 215t-122.5 285q-33 -43 -51.5 -83t-18.5 -75q0 -72 19.5 -134.5t54.5 -90.5l-211 -121q-39 47 -55.5 83t-16.5 87z" />
<glyph unicode="y" horiz-adv-x="698" d="M45 938q0 27 2 60.5t4 65.5t4 56.5t2 34.5q57 8 115 18.5t113 24.5q0 -152 5 -284t18.5 -242.5t38 -197.5t65.5 -146q33 119 53 250t20 272q0 115 -18 188.5t-18 110.5q0 20 14 20h194q16 0 17 -20q0 -4 -8.5 -38t-18.5 -82t-20.5 -104.5t-14.5 -105.5q-12 -166 -52 -336 t-85 -316.5t-85 -256t-50 -158.5q-4 -23 -7 -45t-11 -22h-187q23 37 66 114.5t90 186.5q-68 63 -115 180t-75.5 252t-42 273t-13.5 247z" />
<glyph unicode="z" horiz-adv-x="841" d="M39 102l389 777q2 4 8 18t6 29q0 16 -13 25.5t-34 9.5q-31 0 -61.5 -32t-75.5 -116l-182 174l162 217q6 -6 23.5 -27.5t42 -45t52 -42t56.5 -18.5t57.5 18.5t53 42t42 45t23.5 27.5q18 -25 48 -58.5t60.5 -65t54 -55.5t27.5 -26l-416 -817q-2 -4 -5 -14t-3 -21 q0 -12 6.5 -21t22.5 -9t44 19.5t59.5 52t67.5 76.5t71 93l174 -149l-183 -248q-12 12 -27.5 25.5t-60.5 13.5h-405z" />
<glyph unicode="&#xad;" d="M86 539q12 12 27.5 31.5t31 40t28.5 39t20 30.5l563 -21l-90 -143q-55 0 -144.5 1t-178.5 4t-160.5 7.5t-96.5 10.5z" />
<glyph unicode="&#x2000;" horiz-adv-x="820" />
<glyph unicode="&#x2001;" horiz-adv-x="1640" />
<glyph unicode="&#x2002;" horiz-adv-x="820" />
<glyph unicode="&#x2003;" horiz-adv-x="1640" />
<glyph unicode="&#x2004;" horiz-adv-x="546" />
<glyph unicode="&#x2005;" horiz-adv-x="410" />
<glyph unicode="&#x2006;" horiz-adv-x="273" />
<glyph unicode="&#x2007;" horiz-adv-x="273" />
<glyph unicode="&#x2008;" horiz-adv-x="205" />
<glyph unicode="&#x2009;" horiz-adv-x="328" />
<glyph unicode="&#x200a;" horiz-adv-x="91" />
<glyph unicode="&#x2010;" d="M86 539q12 12 27.5 31.5t31 40t28.5 39t20 30.5l563 -21l-90 -143q-55 0 -144.5 1t-178.5 4t-160.5 7.5t-96.5 10.5z" />
<glyph unicode="&#x2011;" d="M86 539q12 12 27.5 31.5t31 40t28.5 39t20 30.5l563 -21l-90 -143q-55 0 -144.5 1t-178.5 4t-160.5 7.5t-96.5 10.5z" />
<glyph unicode="&#x2012;" d="M86 539q12 12 27.5 31.5t31 40t28.5 39t20 30.5l563 -21l-90 -143q-55 0 -144.5 1t-178.5 4t-160.5 7.5t-96.5 10.5z" />
<glyph unicode="&#x2013;" horiz-adv-x="1203" d="M86 539q18 12 42 31.5t47.5 40t43.5 39t31 30.5l860 -21l-138 -143q-84 0 -220.5 1t-272.5 4t-245.5 7.5t-147.5 10.5z" />
<glyph unicode="&#x2014;" horiz-adv-x="2227" d="M86 539q37 12 84 31.5t94.5 40t87.5 39t61 30.5l1721 -21l-275 -143q-168 0 -441.5 1t-545.5 4t-491 7.5t-295 10.5z" />
<glyph unicode="&#x202f;" horiz-adv-x="328" />
<glyph unicode="&#x205f;" horiz-adv-x="410" />
<glyph unicode="&#xe000;" horiz-adv-x="1198" d="M0 0v1198h1198v-1198h-1198z" />
</font>
</defs>
</svg>
